<svg xmlns="http://www.w3.org/2000/svg" width="21" height="21" viewBox="0 0 21 21" fill="none">
  <path d="M12.4472 18.5696C12.4797 18.6507 12.5363 18.7199 12.6093 18.7679C12.6823 18.8159 12.7682 18.8404 12.8555 18.8382C12.9429 18.836 13.0274 18.8071 13.0978 18.7554C13.1683 18.7037 13.2212 18.6317 13.2496 18.5491L18.8155 2.27934C18.8429 2.20346 18.8482 2.12135 18.8306 2.04262C18.813 1.96388 18.7734 1.89177 18.7164 1.83473C18.6593 1.77768 18.5872 1.73807 18.5085 1.72051C18.4298 1.70295 18.3476 1.70818 18.2718 1.73559L2.00203 7.30155C1.9194 7.32989 1.84741 7.38283 1.79572 7.45326C1.74404 7.52369 1.71515 7.60825 1.71291 7.69558C1.71067 7.78292 1.7352 7.86884 1.78321 7.94183C1.83122 8.01482 1.9004 8.07137 1.98148 8.1039L8.77196 10.8269C8.98662 10.9129 9.18165 11.0414 9.34531 11.2048C9.50896 11.3681 9.63783 11.5629 9.72416 11.7774L12.4472 18.5696Z" stroke="white" stroke-width="1.7126" stroke-linecap="round" stroke-linejoin="round"/>
  <path d="M18.7135 1.83832L9.34558 11.2054" stroke="white" stroke-width="1.7126" stroke-linecap="round" stroke-linejoin="round"/>
</svg>