<svg xmlns="http://www.w3.org/2000/svg" width="21" height="21" viewBox="0 0 21 21" fill="none">
  <path d="M8.23599 3.52222C8.28292 3.02858 8.5122 2.57016 8.87905 2.23653C9.2459 1.90289 9.72396 1.71802 10.2198 1.71802C10.7157 1.71802 11.1938 1.90289 11.5606 2.23653C11.9275 2.57016 12.1567 3.02858 12.2037 3.52222C12.2319 3.84112 12.3365 4.14852 12.5087 4.41841C12.6808 4.68831 12.9155 4.91275 13.1928 5.07274C13.4701 5.23273 13.7818 5.32356 14.1017 5.33754C14.4215 5.35152 14.74 5.28825 15.0302 5.15307C15.4808 4.94849 15.9914 4.91889 16.4626 5.07002C16.9338 5.22115 17.3319 5.54221 17.5795 5.9707C17.827 6.3992 17.9063 6.90447 17.8019 7.38819C17.6974 7.8719 17.4167 8.29945 17.0144 8.58763C16.7525 8.77144 16.5386 9.01565 16.391 9.2996C16.2433 9.58354 16.1663 9.89886 16.1663 10.2189C16.1663 10.5389 16.2433 10.8542 16.391 11.1382C16.5386 11.4221 16.7525 11.6663 17.0144 11.8502C17.4167 12.1383 17.6974 12.5659 17.8019 13.0496C17.9063 13.5333 17.827 14.0386 17.5795 14.4671C17.3319 14.8956 16.9338 15.2166 16.4626 15.3678C15.9914 15.5189 15.4808 15.4893 15.0302 15.2847C14.74 15.1495 14.4215 15.0863 14.1017 15.1002C13.7818 15.1142 13.4701 15.2051 13.1928 15.365C12.9155 15.525 12.6808 15.7495 12.5087 16.0194C12.3365 16.2893 12.2319 16.5967 12.2037 16.9156C12.1567 17.4092 11.9275 17.8676 11.5606 18.2013C11.1938 18.5349 10.7157 18.7198 10.2198 18.7198C9.72396 18.7198 9.2459 18.5349 8.87905 18.2013C8.5122 17.8676 8.28292 17.4092 8.23599 16.9156C8.20784 16.5966 8.10323 16.289 7.931 16.019C7.75878 15.7491 7.52402 15.5245 7.24662 15.3645C6.96921 15.2045 6.65733 15.1137 6.33739 15.0998C6.01744 15.0859 5.69887 15.1494 5.40863 15.2847C4.95804 15.4893 4.44744 15.5189 3.97622 15.3678C3.505 15.2166 3.10687 14.8956 2.85931 14.4671C2.61176 14.0386 2.53249 13.5333 2.63694 13.0496C2.74138 12.5659 3.02207 12.1383 3.42437 11.8502C3.68635 11.6663 3.9002 11.4221 4.04783 11.1382C4.19547 10.8542 4.27254 10.5389 4.27254 10.2189C4.27254 9.89886 4.19547 9.58354 4.04783 9.2996C3.9002 9.01565 3.68635 8.77144 3.42437 8.58763C3.02264 8.29931 2.74244 7.87192 2.63825 7.38854C2.53406 6.90515 2.6133 6.40029 2.86059 5.97207C3.10788 5.54386 3.50554 5.22288 3.9763 5.07152C4.44705 4.92015 4.95727 4.94922 5.40778 5.15307C5.69798 5.28825 6.01647 5.35152 6.3363 5.33754C6.65613 5.32356 6.96788 5.23273 7.24517 5.07274C7.52246 4.91275 7.75712 4.68831 7.9293 4.41841C8.10147 4.14852 8.20609 3.84112 8.23429 3.52222" stroke="black" stroke-width="1.70323" stroke-linecap="round" stroke-linejoin="round"/>
  <path d="M10.2194 12.7742C11.6304 12.7742 12.7742 11.6304 12.7742 10.2194C12.7742 8.80839 11.6304 7.66455 10.2194 7.66455C8.80839 7.66455 7.66455 8.80839 7.66455 10.2194C7.66455 11.6304 8.80839 12.7742 10.2194 12.7742Z" stroke="black" stroke-width="1.70323" stroke-linecap="round" stroke-linejoin="round"/>
</svg>