<svg xmlns="http://www.w3.org/2000/svg" width="21" height="21" viewBox="0 0 21 21" fill="none">
  <path d="M8.50061 9.35071V14.4511" stroke="#E7000B" stroke-width="1.70012" stroke-linecap="round" stroke-linejoin="round"/>
  <path d="M11.9009 9.35071V14.4511" stroke="#E7000B" stroke-width="1.70012" stroke-linecap="round" stroke-linejoin="round"/>
  <path d="M16.1511 5.10034V17.0012C16.1511 17.4521 15.972 17.8845 15.6531 18.2033C15.3343 18.5222 14.9019 18.7013 14.451 18.7013H5.95036C5.49946 18.7013 5.06703 18.5222 4.7482 18.2033C4.42936 17.8845 4.25024 17.4521 4.25024 17.0012V5.10034" stroke="#E7000B" stroke-width="1.70012" stroke-linecap="round" stroke-linejoin="round"/>
  <path d="M2.55017 5.10034H17.8512" stroke="#E7000B" stroke-width="1.70012" stroke-linecap="round" stroke-linejoin="round"/>
  <path d="M6.80054 5.10031V3.40019C6.80054 2.94929 6.97966 2.51686 7.29849 2.19803C7.61732 1.87919 8.04976 1.70007 8.50066 1.70007H11.9009C12.3518 1.70007 12.7842 1.87919 13.1031 2.19803C13.4219 2.51686 13.601 2.94929 13.601 3.40019V5.10031" stroke="#E7000B" stroke-width="1.70012" stroke-linecap="round" stroke-linejoin="round"/>
</svg>