<svg width="80" height="80" viewBox="0 0 80 80" fill="none" xmlns="http://www.w3.org/2000/svg">
<path d="M62.1429 0H17.8571C7.99492 0 0 7.99492 0 17.8571V62.1429C0 72.0051 7.99492 80 17.8571 80H62.1429C72.0051 80 80 72.0051 80 62.1429V17.8571C80 7.99492 72.0051 0 62.1429 0Z" fill="#2D81FF"/>
<path d="M30.875 35.5472H49.1262" stroke="white" stroke-width="1.9433" stroke-linecap="round" stroke-linejoin="round"/>
<path d="M46.626 32.9846L49.1262 35.5785L46.626 38.1724" stroke="white" stroke-width="1.9433" stroke-linecap="round" stroke-linejoin="round"/>
<path d="M48.8137 43.3621L30.5 43.4227" stroke="white" stroke-width="1.9433" stroke-linecap="round" stroke-linejoin="round"/>
<path d="M33.0002 40.7975L30.5 43.3915L33.0002 45.9854" stroke="white" stroke-width="1.9433" stroke-linecap="round" stroke-linejoin="round"/>
<path d="M21.5393 48.4762C21.8416 49.2389 21.909 50.0746 21.7326 50.8759L19.5425 57.6413C19.472 57.9844 19.4902 58.3399 19.5956 58.6739C19.7009 59.008 19.8898 59.3096 20.1444 59.5502C20.399 59.7908 20.7108 59.9623 21.0503 60.0486C21.3898 60.1349 21.7456 60.133 22.0842 60.0432L29.1025 57.9909C29.8587 57.8409 30.6418 57.9065 31.3625 58.1801C35.7536 60.2308 40.7279 60.6646 45.4077 59.4051C50.0875 58.1456 54.1721 55.2738 56.9409 51.2962C59.7096 47.3186 60.9845 42.491 60.5407 37.665C60.0969 32.839 57.9629 28.3249 54.5151 24.919C51.0674 21.5131 46.5275 19.4343 41.6964 19.0495C36.8654 18.6647 32.0537 19.9985 28.1102 22.8156C24.1668 25.6327 21.345 29.7521 20.1428 34.447C18.9406 39.1418 19.4351 44.1104 21.5393 48.4762Z" stroke="white" stroke-width="4.11271" stroke-linecap="round" stroke-linejoin="round"/>
</svg>
